<svg xmlns="http://www.w3.org/2000/svg" width="260" height="57.288" viewBox="0 0 260 57.288">
  <g id="Reevo" transform="translate(0.048 0.005)">
    <path id="Caminho_6" data-name="Caminho 6" d="M95.865,51.719a13.592,13.592,0,0,1,6.752,3.177,11.986,11.986,0,0,1,3.177,5.787,36.185,36.185,0,0,1-.342,19.715c-1.839,6.053-5.6,8.626-11.915,8.638a9.464,9.464,0,0,0-3.392.457l17.745,17.24-.322.532H91.008c-.794,0-1.164-.532-1.589-1.009q-7.26-8.241-14.508-16.5a8.148,8.148,0,0,1-2.284-5.914c.155-3.177,1.39-4.607,4.615-5.1a57.734,57.734,0,0,1,8.118-.294c4.575-.028,6.315-1.442,6.676-5.957.731-9.21-2.065-10.024-8.737-9.9-3.769.068-7.546,0-11.311,0-3.134.024-4.019.894-4.023,4.019,0,12.923-.04,25.847.036,38.77,0,1.616-.485,1.934-1.986,1.894-4.1-.107-8.2-.06-12.312-.071-.485-.651-.238-1.4-.238-2.1q-.028-22.928,0-45.859a8.109,8.109,0,0,1,1.168-5.163,7.077,7.077,0,0,1,2.581-2.176,7.478,7.478,0,0,1,3.574-.818c16.041.083,27.8.183,31.22.2a17.666,17.666,0,0,1,3.856.429Z" transform="translate(-53.45 -51.09)" fill="#f4f7fb"/>
    <path id="Caminho_7" data-name="Caminho 7" d="M474.2,128.638c-2.963-1.255-4.424-3.916-5.358-5.675-6.672-12.566-11.335-26.014-15.465-35.482-.179-.4-.338-.83-.612-1.509,4.2,0,8.2.024,12.193,0,1.191,0,1.128.937,1.386,1.589q4.949,12.709,9.849,25.418a2.954,2.954,0,0,0,.127.373c.4.659.357,1.847,1.191,1.883,1.029.04,1.064-1.191,1.35-1.922,3.316-8.523,6.625-17.054,9.857-25.608a2.242,2.242,0,0,1,2.546-1.747c3.626.115,7.256.04,11.168.04L497.8,96.643c-3.892,8.928-7.824,17.84-11.649,26.8a9.688,9.688,0,0,1-3.344,4.46A9.389,9.389,0,0,1,474.2,128.638Z" transform="translate(-294.207 -72.11)" fill="#f4f7fb"/>
    <path id="Caminho_8" data-name="Caminho 8" d="M634.746,100.288c-.1-.568-.218-1.029-.338-1.676-1.231-6.656-4.845-11.16-11.645-12.689a50.99,50.99,0,0,0-22.411-.02c-6.517,1.438-10.27,5.636-11.565,12.062a42,42,0,0,0-.1,16.283,16.207,16.207,0,0,0,4.146,8.7c2.351,2.383,4.893,3.177,8.686,4.214a39.318,39.318,0,0,0,18.094.739c4.206-.854,8.205-1.652,11.351-5.107a16.315,16.315,0,0,0,3.177-5.536C636.613,110.781,635.461,104.3,634.746,100.288Zm-13.074,11.645c-.83,3.852-3.022,5.87-6.946,6.589a18.241,18.241,0,0,1-4.738.23c-5.667-.429-8.487-3.225-8.952-8.857-.1-1.191-.135-2.383-.175-3.1a22.194,22.194,0,0,1,.961-7.463,7.236,7.236,0,0,1,4.96-4.706,16.859,16.859,0,0,1,9.194-.087c3.781,1,5.385,3.8,5.9,7.375a28.32,28.32,0,0,1-.2,10Z" transform="translate(-375.695 -71.334)" fill="#f4f7fb"/>
    <path id="Caminho_9" data-name="Caminho 9" d="M219.394,110.419c7.407.1,14.81.056,22.217.036,3.4,0,5.441-1.648,6.2-4.949a21.517,21.517,0,0,0,.151-7.86c-1.076-7.645-4.23-11.12-11.915-12.312a57.42,57.42,0,0,0-19.536.155c-6.354,1.191-9.631,4.492-10.723,10.787a59.5,59.5,0,0,0-.159,19.48c1.271,8.138,5.024,11.386,13.325,11.66,4.293.143,8.594.028,12.892.028v.032c4.5,0,8.992-.036,13.5.024,1.124,0,1.489-.31,1.442-1.434a43.8,43.8,0,0,1,0-5.731c.143-1.664-.536-1.914-2.01-1.9-6.807.048-13.618.079-20.426-.075-4.047-.091-6.033-2.1-6.6-5.985C217.552,111.006,217.738,110.395,219.394,110.419Zm-1.7-9.822c.2-3.515,1.886-5.814,5.223-6.537a15.14,15.14,0,0,1,9.135.616,5.041,5.041,0,0,1,3.4,4.238c.218,1.926-.56,2.844-2.522,2.887-2.311.048-4.619,0-6.93,0h0c-2.383,0-4.766-.036-7.125,0C217.925,101.856,217.651,101.566,217.691,100.6Z" transform="translate(-144.782 -71.278)" fill="#f4f7fb"/>
    <path id="Caminho_10" data-name="Caminho 10" d="M346.1,110.433c7.2.1,14.413.048,21.617.04,4.063,0,6.259-1.89,6.8-5.91a25.655,25.655,0,0,0-.195-8.062c-1.223-6.581-4.337-9.814-10.965-11a58.732,58.732,0,0,0-20.513,0c-5.794,1-9.281,4.448-10.394,10.191a59.069,59.069,0,0,0-.179,20.839c1.148,7,4.162,9.714,11.239,10.668,4.929.663,9.9.087,13.956.266,5.4,0,9.893-.032,14.389.024,1.1,0,1.525-.258,1.469-1.418a35.747,35.747,0,0,1,0-5.532c.191-1.839-.512-2.145-2.2-2.125-6.752.075-13.5.091-20.231-.06-4.091-.091-6.176-2.2-6.609-5.957C344.125,110.91,344.443,110.41,346.1,110.433Zm-1.839-9.873c.187-3.5,1.839-5.763,5.223-6.489a14.809,14.809,0,0,1,9.115.639c2.006.862,3.34,2.264,3.336,4.651,0,1.62-.643,2.474-2.323,2.462h-7.121c-2.307,0-4.615-.04-6.922,0C344.57,101.879,344.2,101.668,344.256,100.56Z" transform="translate(-221.056 -71.293)" fill="#f4f7fb"/>
  </g>
</svg>
